<?xml version="1.0" encoding="UTF-8" standalone="no"?>
<svg
   xmlns:dc="http://purl.org/dc/elements/1.1/"
   xmlns:cc="http://creativecommons.org/ns#"
   xmlns:rdf="http://www.w3.org/1999/02/22-rdf-syntax-ns#"
   xmlns:svg="http://www.w3.org/2000/svg"
   xmlns="http://www.w3.org/2000/svg"
   xmlns:sodipodi="http://sodipodi.sourceforge.net/DTD/sodipodi-0.dtd"
   xmlns:inkscape="http://www.inkscape.org/namespaces/inkscape"
   viewBox="0 0 705.18024 165.04425"
   height="24"
   width="24"
   xml:space="preserve"
   version="1.1"
   id="svg3336"
   sodipodi:docname="_gituni_logo.svg"
   inkscape:version="0.92.2 2405546, 2018-03-11"
   style="enable-background:new"><sodipodi:namedview
   pagecolor="#ffffff"
   bordercolor="#666666"
   borderopacity="1"
   objecttolerance="10"
   gridtolerance="10"
   guidetolerance="10"
   inkscape:pageopacity="0"
   inkscape:pageshadow="2"
   inkscape:window-width="1918"
   inkscape:window-height="1024"
   id="namedview18"
   showgrid="false"
   inkscape:zoom="9.8333333"
   inkscape:cx="-4.1201955"
   inkscape:cy="9.6848538"
   inkscape:window-x="0"
   inkscape:window-y="27"
   inkscape:window-maximized="0"
   inkscape:current-layer="layer2" />
  <metadata id="metadata3342">
    <rdf:RDF>
      <cc:Work rdf:about="">
        <dc:format>image/svg+xml</dc:format>
        <dc:type rdf:resource="http://purl.org/dc/dcmitype/StillImage" />
        <dc:title></dc:title>
      </cc:Work>
    </rdf:RDF>
  </metadata>
  <defs id="defs3340">
    <clipPath id="clipPath3354" clipPathUnits="userSpaceOnUse">
      <path id="path3356" d="M 0,1200 H 1200 V 0 H 0 Z" inkscape:connector-curvature="0" />
    </clipPath>
    <clipPath id="clipPath3354-3" clipPathUnits="userSpaceOnUse">
      <path inkscape:connector-curvature="0" id="path3356-6" d="M 0,1200 H 1200 V 0 H 0 Z" />
    </clipPath>
  </defs>
  <g inkscape:groupmode="layer" id="layer1" inkscape:label="Layer 1" style="display:inline" transform="translate(-22.455975,68.024819)">
    <rect style="fill:#ffffff;stroke-width:29.38250923" id="rect3725" width="714.14435" height="702.19232" x="13.40036" y="-357.95959" />
  </g>
  <g inkscape:groupmode="layer" id="layer2" inkscape:label="Layer 2" transform="translate(-22.455975,68.024819)">
    <g transform="matrix(4.4822899,0,0,-4.5150788,-1374.9536,2756.3553)" id="g3344">
      <g id="g3350">
        <g clip-path="url(#clipPath3354-3)" id="g3352">
          <g transform="translate(385.105,558.7003)" id="g3358">
            <path id="path3360" style="fill:#979796;fill-opacity:1;fill-rule:nonzero;stroke:none" d="M 0,0 -55.018,39.299 V 33.082 L -1.47,-5.167 c 0.439,-0.314 0.955,-0.471 1.47,-0.471 0.515,0 1.031,0.157 1.47,0.471 l 26.354,18.824 v 6.217 z" inkscape:connector-curvature="0" />
          </g>
          <g transform="translate(440.1238,591.7828)" id="g3362">
            <path id="path3364" style="fill:#979796;fill-opacity:1;fill-rule:nonzero;stroke:none" d="m 0,0 v 6.217 l -11.97,-8.55 V -8.55 Z" inkscape:connector-curvature="0" />
          </g>
          <g transform="translate(455.9288,619.8392)" id="g3366">
            <path id="path3368" style="fill:#554589;fill-opacity:1;fill-rule:nonzero;stroke:none" d="m 0,0 c -3.348,0 -6.071,2.27 -6.071,5.059 0,2.789 2.723,5.059 6.071,5.059 3.348,0 6.071,-2.27 6.071,-5.059 C 6.071,2.27 3.348,0 0,0 m -8.742,-1.192 c 0.001,-0.001 0.002,-0.001 0.002,-0.002 0,10e-4 -10e-4,10e-4 -0.002,0.002 m -20.599,-62.549 c 0,-2.79 -2.723,-5.059 -6.071,-5.059 -3.347,0 -6.07,2.269 -6.07,5.059 0,2.789 2.723,5.058 6.07,5.058 3.348,0 6.071,-2.269 6.071,-5.058 M -70.824,0 c -3.347,0 -6.07,2.27 -6.07,5.059 0,2.789 2.723,5.059 6.07,5.059 3.348,0 6.071,-2.27 6.071,-5.059 C -64.753,2.27 -67.476,0 -70.824,0 M 0,15.177 c -6.137,0 -11.129,-4.539 -11.129,-10.118 0,-1.476 0.352,-2.877 0.979,-4.142 L -35.412,-17.127 -60.674,0.917 c 0.628,1.265 0.98,2.666 0.98,4.142 0,5.579 -4.993,10.118 -11.13,10.118 -6.137,0 -11.129,-4.539 -11.129,-10.118 0,-5.579 4.992,-10.118 11.129,-10.118 2.571,0 4.939,0.799 6.825,2.134 l 24.235,-17.31 -0.01,-0.008 1.103,-0.788 c 0.437,-0.311 0.698,-0.806 0.73,-1.338 v -31.522 c -4.922,-1.044 -8.6,-5.062 -8.6,-9.85 0,-5.579 4.992,-10.118 11.129,-10.118 6.137,0 11.13,4.539 11.13,10.118 0,4.788 -3.679,8.806 -8.6,9.85 v 32.354 L -6.825,-2.924 C -4.939,-4.26 -2.571,-5.059 0,-5.059 c 3.543,0 6.705,1.513 8.745,3.866 1.493,1.722 2.384,3.894 2.384,6.252 0,5.579 -4.992,10.118 -11.129,10.118" inkscape:connector-curvature="0" />
          </g>
          <g transform="translate(444.8322,635.9326)" id="g3370">
            <path id="path3372" style="fill:#554589;fill-opacity:1;fill-rule:nonzero;stroke:none" d="m 0,0 -58.257,41.612 c -0.879,0.628 -2.061,0.628 -2.94,0 l -70.824,-50.588 c -0.665,-0.475 -1.059,-1.241 -1.059,-2.059 0,-0.817 0.394,-1.583 1.059,-2.058 l 70.824,-50.588 c 0.439,-0.314 0.955,-0.471 1.47,-0.471 0.515,0 1.03,0.157 1.47,0.471 l 26.353,18.824 v 3.739 c -0.031,0.532 -0.292,1.026 -0.729,1.338 l -0.433,0.309 -26.661,-19.044 -66.472,47.48 66.472,47.48 L -17.232,6.091 -3.202,-3.93 C -2.368,-2.459 -1.282,-1.134 0,0" inkscape:connector-curvature="0" />
          </g>
        </g>
      </g>
    </g>
  </g>
</svg>
